<svg width="209" height="312" viewBox="0 0 209 312" fill="none" xmlns="http://www.w3.org/2000/svg">
<path d="M19.2069 246.295C19.2977 247.048 19.9371 247.615 20.6961 247.615H60.1224C61.0689 247.615 61.7991 246.761 61.606 245.815C60.7904 241.819 58.2821 228.532 58.2766 216.257C58.2738 210.112 58.8992 204.277 60.6415 199.995C61.5108 197.859 62.6472 196.137 64.0959 194.951C65.5362 193.772 67.3105 193.102 69.5064 193.102C71.703 193.102 73.4833 193.773 74.9333 194.953C76.3917 196.141 77.5407 197.864 78.4253 200.002C80.1982 204.286 80.8643 210.125 80.9045 216.272C80.9847 228.551 78.5691 241.841 77.7836 245.826C77.5976 246.769 78.3275 247.615 79.2693 247.615H118.028C118.786 247.615 119.425 247.05 119.517 246.298L137.872 96.4388C137.981 95.5447 137.284 94.7564 136.383 94.7564H104.958C104.058 94.7564 103.336 95.5306 103.465 96.4493C104.269 102.207 107.858 129.129 108.391 154.557C108.657 167.278 108.158 179.588 106.178 188.681C105.187 193.232 103.834 196.932 102.054 199.472C100.285 201.997 98.1242 203.339 95.477 203.297C92.8248 203.254 90.6355 201.841 88.8239 199.257C87.0037 196.66 85.5971 192.921 84.5411 188.349C82.4305 179.211 81.7561 166.911 81.8419 154.228C82.0135 128.874 85.2204 102.132 85.9408 96.4287C86.0562 95.5156 85.3365 94.7564 84.4454 94.7564H54.9575C54.0638 94.7564 53.3453 95.5207 53.4625 96.4337C54.1941 102.135 57.4371 128.777 57.5631 154.033C57.6262 166.666 56.9086 178.916 54.7219 188.016C53.6278 192.569 52.1754 196.292 50.3001 198.877C48.4343 201.45 46.1774 202.865 43.4392 202.907C40.7059 202.95 38.4807 201.606 36.6621 199.094C34.8317 196.565 33.4398 192.881 32.4189 188.351C30.3785 179.297 29.8577 167.038 30.1239 154.368C30.6561 129.04 34.3285 102.218 35.155 96.4574C35.2868 95.5384 34.5666 94.7564 33.6629 94.7564H2.62781C1.72819 94.7564 1.03091 95.5428 1.1386 96.436L19.2069 246.295Z" fill="#F5FAF9" stroke="#F5FAF9"/>
<path d="M74.8096 2.31255C74.7152 1.56253 74.0773 1.00001 73.3214 1.00001H49.7838C48.8328 1.00001 48.1064 1.86258 48.2965 2.80647C48.8949 5.77751 50.3335 13.7118 50.2481 20.8893C50.2053 24.4851 49.7797 27.8342 48.7129 30.2672C48.1817 31.4786 47.5021 32.4383 46.655 33.0941C45.8151 33.7443 44.7848 34.1162 43.5064 34.1162C42.2274 34.1162 41.1933 33.744 40.3475 33.0925C39.4945 32.4354 38.8074 31.4742 38.2674 30.2615C37.1827 27.8262 36.7335 24.4744 36.6653 20.8771C36.5292 13.6961 37.9119 5.76005 38.4877 2.79594C38.6705 1.85474 37.945 1.00001 36.9984 1.00001H13.8721C13.1154 1.00001 12.4771 1.56368 12.3836 2.31463L1.14376 92.5669C1.0323 93.462 1.73029 94.2523 2.63227 94.2523H21.1634C22.0513 94.2523 22.7906 93.5069 22.6603 92.575C22.0561 88.253 19.919 72.0161 19.6635 56.8949C19.5356 49.3282 19.88 42.0786 21.1077 36.7484C21.7223 34.0802 22.5487 31.9372 23.6145 30.4785C24.6685 29.0359 25.9304 28.2914 27.4619 28.3155C28.9977 28.3397 30.2797 29.1266 31.3609 30.6075C32.4516 32.1014 33.3101 34.2696 33.9635 36.9516C35.269 42.3104 35.7182 49.5557 35.6996 57.1011C35.6626 72.1801 33.7597 88.3109 33.2191 92.5945C33.1023 93.5196 33.8377 94.2523 34.7181 94.2523H52.0526C52.9345 94.2523 53.6703 93.5172 53.5516 92.5911C53.0031 88.3126 51.08 72.2423 51.0724 57.2228C51.0686 49.7071 51.5449 42.4921 52.8969 37.1566C53.5735 34.4866 54.4596 32.3282 55.5831 30.8407C56.6965 29.3667 58.02 28.5764 59.6105 28.552C61.2015 28.5276 62.5065 29.2802 63.5917 30.7243C64.6893 32.185 65.5397 34.33 66.1719 36.9999C67.4348 42.3342 67.7875 49.5871 67.6545 57.1499C67.3889 72.263 65.189 88.4586 64.5859 92.6464C64.4579 93.5355 65.1267 94.2677 65.9745 94.3282L84.7616 95.6684C85.7052 95.7357 86.4748 94.9234 86.3566 93.9848L74.8096 2.31255Z" fill="#F5FAF9" stroke="#F5FAF9"/>
<path d="M189.439 246.298C189.347 247.05 188.708 247.615 187.95 247.615H147.72C146.771 247.615 146.041 246.755 146.238 245.808C147.07 241.806 149.626 228.521 149.631 216.25C149.633 210.107 148.995 204.274 147.219 199.996C146.333 197.861 145.175 196.14 143.698 194.954C142.228 193.774 140.416 193.102 138.173 193.102C135.93 193.102 134.112 193.774 132.632 194.956C131.144 196.143 129.973 197.866 129.072 200.003C127.265 204.284 126.585 210.12 126.544 216.265C126.461 228.541 128.923 241.828 129.724 245.819C129.914 246.764 129.184 247.615 128.24 247.615H88.6903C87.9337 247.615 87.2956 247.052 87.2018 246.301L68.4904 96.4423C68.3786 95.547 69.0766 94.7564 69.9788 94.7564H102.053C102.955 94.7564 103.676 95.5347 103.545 96.4541C102.724 102.22 99.0666 129.14 98.5239 154.565C98.2524 167.284 98.7617 179.591 100.78 188.682C101.791 193.231 103.169 196.93 104.984 199.469C106.787 201.992 108.992 203.339 111.699 203.297C114.41 203.254 116.645 201.836 118.491 199.254C120.346 196.658 121.779 192.92 122.856 188.349C125.007 179.213 125.695 166.916 125.608 154.235C125.433 128.884 122.165 102.144 121.43 96.4331C121.312 95.5192 122.032 94.7564 122.925 94.7564H153.024C153.919 94.7564 154.638 95.5245 154.518 96.4382C153.772 102.146 150.466 128.788 150.339 154.04C150.275 166.672 151.006 178.919 153.235 188.017C154.351 192.568 155.831 196.29 157.742 198.874C159.644 201.446 161.947 202.865 164.746 202.907C167.541 202.95 169.812 201.602 171.665 199.091C173.531 196.562 174.949 192.88 175.99 188.352C178.07 179.3 178.601 167.045 178.33 154.376C177.788 129.051 174.046 102.231 173.202 96.4624C173.067 95.5426 173.787 94.7564 174.693 94.7564H206.37C207.271 94.7564 207.968 95.5451 207.858 96.4394L189.439 246.298Z" fill="#F5FAF9" stroke="#F5FAF9"/>
<path d="M134.19 2.31255C134.285 1.56253 134.923 1.00001 135.679 1.00001H159.216C160.167 1.00001 160.894 1.86258 160.703 2.80647C160.105 5.77751 158.667 13.7118 158.752 20.8893C158.795 24.4851 159.22 27.8342 160.287 30.2672C160.818 31.4786 161.498 32.4383 162.345 33.0941C163.185 33.7443 164.215 34.1162 165.494 34.1162C166.773 34.1162 167.807 33.744 168.653 33.0925C169.505 32.4354 170.193 31.4742 170.733 30.2615C171.817 27.8262 172.267 24.4744 172.335 20.8771C172.471 13.6961 171.088 5.76005 170.512 2.79594C170.33 1.85474 171.055 1.00001 172.002 1.00001H195.128C195.885 1.00001 196.523 1.56368 196.616 2.31463L207.856 92.5669C207.968 93.462 207.27 94.2523 206.368 94.2523H187.837C186.949 94.2523 186.209 93.5069 186.34 92.575C186.944 88.253 189.081 72.0161 189.336 56.8949C189.464 49.3282 189.12 42.0786 187.892 36.7484C187.278 34.0802 186.451 31.9372 185.386 30.4785C184.332 29.0359 183.07 28.2914 181.538 28.3155C180.002 28.3397 178.72 29.1266 177.639 30.6075C176.548 32.1014 175.69 34.2696 175.037 36.9516C173.731 42.3104 173.282 49.5557 173.3 57.1011C173.337 72.1801 175.24 88.3109 175.781 92.5945C175.898 93.5196 175.162 94.2523 174.282 94.2523H156.947C156.066 94.2523 155.33 93.5172 155.448 92.5911C155.997 88.3126 157.92 72.2423 157.928 57.2228C157.931 49.7071 157.455 42.4921 156.103 37.1566C155.427 34.4866 154.54 32.3282 153.417 30.8407C152.304 29.3667 150.98 28.5764 149.39 28.552C147.799 28.5276 146.493 29.2802 145.408 30.7243C144.311 32.185 143.46 34.33 142.828 36.9999C141.565 42.3342 141.213 49.5871 141.345 57.1499C141.611 72.263 143.811 88.4586 144.414 92.6464C144.542 93.5355 143.873 94.2677 143.025 94.3282L124.238 95.6684C123.295 95.7357 122.525 94.9234 122.643 93.9848L134.19 2.31255Z" fill="#F5FAF9" stroke="#F5FAF9"/>
<path d="M99.6418 306.562L99.643 306.563C101.961 309.289 105.396 310.615 109.853 310.615C114.31 310.615 117.745 309.289 120.063 306.563L120.065 306.562C122.362 303.839 123.479 300.072 123.479 295.326V276.363C123.479 271.774 122.341 268.219 119.981 265.788C117.621 263.336 114.217 262.147 109.853 262.147C105.508 262.147 102.105 263.337 99.7257 265.788L99.7256 265.788C97.3658 268.219 96.2273 271.774 96.2273 276.363V295.326C96.2273 300.072 97.3438 303.839 99.6418 306.562ZM11 308.638C11 309.467 11.6716 310.138 12.5 310.138H21.0854C21.9138 310.138 22.5854 309.467 22.5854 308.638V295.756C22.5854 295.173 23.4149 295.062 23.5679 295.625L27.2104 309.036C27.3864 309.684 27.9754 310.145 28.6633 310.128C29.9165 310.095 32.5187 309.967 34.7219 309.453C35.816 309.198 36.8679 308.836 37.6058 308.304C37.9791 308.035 38.2964 307.706 38.4857 307.3C38.6796 306.886 38.7231 306.426 38.5993 305.938C38.1478 304.157 33.0017 287.86 32.2199 285.386C32.1862 285.28 32.1885 285.186 32.2284 285.08C32.7257 283.747 34.705 278.392 36.3141 273.317C37.1178 270.782 37.8341 268.302 38.2255 266.423C38.4201 265.489 38.5408 264.675 38.5432 264.068C38.5444 263.768 38.5176 263.477 38.4309 263.236C38.3424 262.99 38.1531 262.708 37.7904 262.634C34.399 261.948 29.3812 262.37 27.6058 262.552C26.9849 262.616 26.4844 263.062 26.3304 263.655L23.5088 274.51C23.3612 275.078 22.5249 274.971 22.5249 274.385V264.124C22.5249 263.296 21.8533 262.624 21.0249 262.624H12.5C11.6716 262.624 11 263.296 11 264.124V308.638ZM40.2761 308.638C40.2761 309.467 40.9477 310.138 41.7761 310.138H61.7634C62.5918 310.138 63.2634 309.467 63.2634 308.638V300.888C63.2634 299.822 62.1965 299.111 61.22 299.419C59.9749 299.811 58.0813 300.309 56.2676 300.401C54.4213 300.496 52.8365 300.163 51.9954 299.101C50.032 296.621 49.9304 293.482 51.9788 291.154C52.7605 290.266 54.149 289.971 55.7584 290.034C57.3407 290.097 58.9889 290.501 60.1153 290.838C61.0895 291.13 62.1444 290.42 62.1444 289.36V282.432C62.1444 281.366 61.0805 280.655 60.1037 280.957C58.9604 281.31 57.2867 281.735 55.6979 281.802C54.0789 281.871 52.719 281.562 51.9961 280.645C50.2746 278.461 50.3104 275.8 52.0022 273.564C52.7456 272.581 54.179 272.258 55.8886 272.338C57.5656 272.417 59.3336 272.878 60.5228 273.252C61.5007 273.56 62.5678 272.848 62.5678 271.781V264.124C62.5678 263.296 61.8962 262.624 61.0678 262.624H41.7761C40.9477 262.624 40.2761 263.296 40.2761 264.124V308.638ZM65.8019 308.638C65.8019 309.467 66.4735 310.138 67.302 310.138H74.536C75.632 310.138 76.3547 309.012 75.954 308.016C75.2184 306.189 74.0538 302.945 73.7296 300.049C73.567 298.596 73.6232 297.29 74.0042 296.306C74.3717 295.357 75.0407 294.698 76.1956 294.476C77.391 294.245 78.2945 294.689 79.0268 295.606C79.7825 296.552 80.3314 297.984 80.7181 299.625C81.4887 302.896 81.565 306.772 81.5505 308.596C81.5439 309.437 82.2204 310.138 83.0726 310.138H91.4327C92.2611 310.138 92.9327 309.467 92.9327 308.638V264.124C92.9327 263.296 92.2611 262.624 91.4327 262.624H84.0648C83.0832 262.624 82.3546 263.543 82.5952 264.502C83.2202 266.993 84.5655 272.761 85.0412 277.993C85.2797 280.615 85.2951 283.059 84.9133 284.878C84.5252 286.727 83.7854 287.706 82.688 287.854C82.1172 287.93 81.6202 287.761 81.1591 287.358C80.6827 286.942 80.2468 286.276 79.8595 285.384C79.0854 283.6 78.5705 281.064 78.2375 278.306C77.5732 272.804 77.6514 266.591 77.7159 264.174C77.7386 263.323 77.0551 262.624 76.2053 262.624H67.3019C66.4735 262.624 65.8019 263.296 65.8019 264.124V308.638ZM130.843 308.821C130.936 309.573 131.574 310.138 132.332 310.138H143.17C144.13 310.138 144.842 309.259 144.666 308.326C144.304 306.409 143.691 302.585 143.817 299.256C143.881 297.584 144.129 296.095 144.648 295.039C144.905 294.516 145.218 294.12 145.589 293.855C145.955 293.594 146.401 293.441 146.962 293.441C148.045 293.441 148.78 294.014 149.293 295.043C149.82 296.101 150.079 297.593 150.154 299.265C150.303 302.597 149.717 306.422 149.369 308.336C149.2 309.266 149.911 310.138 150.867 310.138H161.504C162.26 310.138 162.899 309.575 162.992 308.824L168.549 264.31C168.661 263.415 167.963 262.624 167.061 262.624H158.829C157.925 262.624 157.208 263.407 157.332 264.322C157.726 267.232 158.721 275.262 158.776 282.542C158.804 286.188 158.595 289.608 157.974 292.095C157.663 293.342 157.258 294.31 156.762 294.954C156.277 295.583 155.727 295.88 155.076 295.87C154.42 295.86 153.857 295.542 153.357 294.891C152.848 294.228 152.428 293.245 152.098 291.991C151.441 289.487 151.182 286.067 151.157 282.43C151.107 275.167 151.986 267.187 152.337 264.302C152.448 263.393 151.734 262.624 150.838 262.624H143.211C142.313 262.624 141.599 263.396 141.711 264.305C142.067 267.187 142.954 275.135 142.888 282.368C142.854 285.99 142.582 289.394 141.901 291.885C141.56 293.132 141.128 294.11 140.603 294.771C140.088 295.417 139.504 295.74 138.819 295.751C138.138 295.761 137.567 295.459 137.07 294.834C136.56 294.193 136.144 293.23 135.824 291.991C135.184 289.517 134.967 286.114 134.993 282.483C135.045 275.234 136.062 267.236 136.466 264.328C136.594 263.411 135.876 262.624 134.97 262.624H126.862C125.961 262.624 125.263 263.413 125.373 264.307L130.843 308.821ZM168.878 308.474C168.78 309.362 169.475 310.138 170.369 310.138H178.219C179.244 310.138 179.945 309.149 179.728 308.198C179.501 307.207 179.263 305.818 179.314 304.523C179.366 303.204 179.71 302.131 180.49 301.578C182.387 300.235 184.539 300.241 186.446 301.58C187.232 302.132 187.586 303.209 187.651 304.533C187.715 305.832 187.492 307.225 187.276 308.215C187.071 309.161 187.771 310.138 188.789 310.138H196.386C197.278 310.138 197.973 309.364 197.877 308.476L193.01 263.658C192.951 263.114 192.592 262.632 192.068 262.436C189.973 261.649 188.278 261.5 186.809 261.69C185.349 261.878 184.142 262.4 183.042 262.895C182.978 262.924 182.915 262.952 182.853 262.98C181.812 263.45 180.877 263.872 179.835 264.037C178.755 264.209 177.535 264.105 175.981 263.401C175.05 262.979 173.848 263.513 173.725 264.622L168.878 308.474Z" fill="#F5FAF9" stroke="#F5FAF9"/>
</svg>
