<svg width="208" height="311" viewBox="0 0 208 311" fill="none" xmlns="http://www.w3.org/2000/svg">
<path d="M18.7069 245.795C18.7977 246.548 19.4371 247.115 20.1961 247.115H59.6224C60.5689 247.115 61.2991 246.261 61.106 245.315C60.2904 241.319 57.7821 228.032 57.7766 215.757C57.7738 209.612 58.3992 203.777 60.1415 199.495C61.0108 197.359 62.1472 195.637 63.5959 194.451C65.0362 193.272 66.8105 192.602 69.0064 192.602C71.203 192.602 72.9833 193.273 74.4333 194.453C75.8917 195.641 77.0407 197.364 77.9253 199.502C79.6982 203.786 80.3643 209.625 80.4045 215.772C80.4847 228.051 78.0691 241.341 77.2836 245.326C77.0976 246.269 77.8275 247.115 78.7693 247.115H117.528C118.286 247.115 118.925 246.55 119.017 245.798L137.372 95.9388C137.481 95.0447 136.784 94.2564 135.883 94.2564H104.458C103.558 94.2564 102.836 95.0306 102.965 95.9493C103.769 101.707 107.358 128.629 107.891 154.057C108.157 166.778 107.658 179.088 105.678 188.181C104.687 192.732 103.334 196.432 101.554 198.972C99.7845 201.497 97.6242 202.839 94.977 202.797C92.3248 202.754 90.1355 201.341 88.3239 198.757C86.5037 196.16 85.0971 192.421 84.0411 187.849C81.9305 178.711 81.2561 166.411 81.3419 153.728C81.5135 128.374 84.7204 101.632 85.4408 95.9287C85.5562 95.0156 84.8365 94.2564 83.9454 94.2564H54.4575C53.5638 94.2564 52.8453 95.0207 52.9625 95.9337C53.6941 101.635 56.9371 128.277 57.0631 153.533C57.1262 166.166 56.4086 178.416 54.2219 187.516C53.1278 192.069 51.6754 195.792 49.8001 198.377C47.9343 200.95 45.6774 202.365 42.9392 202.407C40.2059 202.45 37.9807 201.106 36.1621 198.594C34.3317 196.065 32.9398 192.381 31.9189 187.851C29.8785 178.797 29.3577 166.538 29.6239 153.868C30.1561 128.54 33.8285 101.718 34.655 95.9574C34.7868 95.0384 34.0666 94.2564 33.1629 94.2564H2.12781C1.22819 94.2564 0.530909 95.0428 0.638595 95.936L18.7069 245.795Z" fill="#FEDE71" stroke="#FEDE71"/>
<path d="M74.3096 1.81255C74.2152 1.06253 73.5773 0.500008 72.8214 0.500008H49.2838C48.3328 0.500008 47.6064 1.36258 47.7965 2.30647C48.3949 5.27751 49.8335 13.2118 49.7481 20.3893C49.7053 23.9851 49.2797 27.3342 48.2129 29.7672C47.6817 30.9786 47.0021 31.9383 46.155 32.5941C45.3151 33.2443 44.2848 33.6162 43.0064 33.6162C41.7274 33.6162 40.6933 33.244 39.8475 32.5925C38.9945 31.9354 38.3074 30.9742 37.7674 29.7615C36.6827 27.3262 36.2335 23.9744 36.1653 20.3771C36.0292 13.1961 37.4119 5.26005 37.9877 2.29594C38.1705 1.35474 37.445 0.500008 36.4984 0.500008H13.3721C12.6154 0.500008 11.9771 1.06368 11.8836 1.81463L0.643761 92.0669C0.532295 92.962 1.23029 93.7523 2.13227 93.7523H20.6634C21.5513 93.7523 22.2906 93.0069 22.1603 92.075C21.5561 87.753 19.419 71.5161 19.1635 56.3949C19.0356 48.8282 19.38 41.5786 20.6077 36.2484C21.2223 33.5802 22.0487 31.4372 23.1145 29.9785C24.1685 28.5359 25.4304 27.7914 26.9619 27.8155C28.4977 27.8397 29.7797 28.6266 30.8609 30.1075C31.9516 31.6014 32.8101 33.7696 33.4635 36.4516C34.769 41.8104 35.2182 49.0557 35.1996 56.6011C35.1626 71.6801 33.2597 87.8109 32.7191 92.0945C32.6023 93.0196 33.3377 93.7523 34.2181 93.7523H51.5526C52.4345 93.7523 53.1703 93.0172 53.0516 92.0911C52.5031 87.8126 50.58 71.7423 50.5724 56.7228C50.5686 49.2071 51.0449 41.9921 52.3969 36.6566C53.0735 33.9866 53.9596 31.8282 55.0831 30.3407C56.1965 28.8667 57.52 28.0764 59.1105 28.052C60.7015 28.0276 62.0065 28.7802 63.0917 30.2243C64.1893 31.685 65.0397 33.83 65.6719 36.4999C66.9348 41.8342 67.2875 49.0871 67.1545 56.6499C66.8889 71.763 64.689 87.9586 64.0859 92.1464C63.9579 93.0355 64.6267 93.7677 65.4745 93.8282L84.2616 95.1684C85.2052 95.2357 85.9748 94.4234 85.8566 93.4848L74.3096 1.81255Z" fill="#FEDE71" stroke="#FEDE71"/>
<path d="M188.939 245.798C188.847 246.55 188.208 247.115 187.45 247.115H147.22C146.271 247.115 145.541 246.255 145.738 245.308C146.57 241.306 149.126 228.021 149.131 215.75C149.133 209.607 148.495 203.774 146.719 199.496C145.833 197.361 144.675 195.64 143.198 194.454C141.728 193.274 139.916 192.602 137.673 192.602C135.43 192.602 133.612 193.274 132.132 194.456C130.644 195.643 129.473 197.366 128.572 199.503C126.765 203.784 126.085 209.62 126.044 215.765C125.961 228.041 128.423 241.328 129.224 245.319C129.414 246.264 128.684 247.115 127.74 247.115H88.1903C87.4337 247.115 86.7956 246.552 86.7018 245.801L67.9904 95.9423C67.8786 95.047 68.5766 94.2564 69.4788 94.2564H101.553C102.455 94.2564 103.176 95.0347 103.045 95.9541C102.224 101.72 98.5666 128.64 98.0239 154.065C97.7524 166.784 98.2617 179.091 100.28 188.182C101.291 192.731 102.669 196.43 104.484 198.969C106.287 201.492 108.492 202.839 111.199 202.797C113.91 202.754 116.145 201.336 117.991 198.754C119.846 196.158 121.279 192.42 122.356 187.849C124.507 178.713 125.195 166.416 125.108 153.735C124.933 128.384 121.665 101.644 120.93 95.9331C120.812 95.0192 121.532 94.2564 122.425 94.2564H152.524C153.419 94.2564 154.138 95.0245 154.018 95.9382C153.272 101.646 149.966 128.288 149.839 153.54C149.775 166.172 150.506 178.419 152.735 187.517C153.851 192.068 155.331 195.79 157.242 198.374C159.144 200.946 161.447 202.365 164.246 202.407C167.041 202.45 169.312 201.102 171.165 198.591C173.031 196.062 174.449 192.38 175.49 187.852C177.57 178.8 178.101 166.545 177.83 153.876C177.288 128.551 173.546 101.731 172.702 95.9624C172.567 95.0426 173.287 94.2564 174.193 94.2564H205.87C206.771 94.2564 207.468 95.0451 207.358 95.9394L188.939 245.798Z" fill="#FEDE71" stroke="#FEDE71"/>
<path d="M133.69 1.81255C133.785 1.06253 134.423 0.500008 135.179 0.500008H158.716C159.667 0.500008 160.394 1.36258 160.203 2.30647C159.605 5.27751 158.167 13.2118 158.252 20.3893C158.295 23.9851 158.72 27.3342 159.787 29.7672C160.318 30.9786 160.998 31.9383 161.845 32.5941C162.685 33.2443 163.715 33.6162 164.994 33.6162C166.273 33.6162 167.307 33.244 168.153 32.5925C169.005 31.9354 169.693 30.9742 170.233 29.7615C171.317 27.3262 171.767 23.9744 171.835 20.3771C171.971 13.1961 170.588 5.26005 170.012 2.29594C169.83 1.35474 170.555 0.500008 171.502 0.500008H194.628C195.385 0.500008 196.023 1.06368 196.116 1.81463L207.356 92.0669C207.468 92.962 206.77 93.7523 205.868 93.7523H187.337C186.449 93.7523 185.709 93.0069 185.84 92.075C186.444 87.753 188.581 71.5161 188.836 56.3949C188.964 48.8282 188.62 41.5786 187.392 36.2484C186.778 33.5802 185.951 31.4372 184.886 29.9785C183.832 28.5359 182.57 27.7914 181.038 27.8155C179.502 27.8397 178.22 28.6266 177.139 30.1075C176.048 31.6014 175.19 33.7696 174.537 36.4516C173.231 41.8104 172.782 49.0557 172.8 56.6011C172.837 71.6801 174.74 87.8109 175.281 92.0945C175.398 93.0196 174.662 93.7523 173.782 93.7523H156.447C155.566 93.7523 154.83 93.0172 154.948 92.0911C155.497 87.8126 157.42 71.7423 157.428 56.7228C157.431 49.2071 156.955 41.9921 155.603 36.6566C154.927 33.9866 154.04 31.8282 152.917 30.3407C151.804 28.8667 150.48 28.0764 148.89 28.052C147.299 28.0276 145.993 28.7802 144.908 30.2243C143.811 31.685 142.96 33.83 142.328 36.4999C141.065 41.8342 140.713 49.0871 140.845 56.6499C141.111 71.763 143.311 87.9586 143.914 92.1464C144.042 93.0355 143.373 93.7677 142.525 93.8282L123.738 95.1684C122.795 95.2357 122.025 94.4234 122.143 93.4848L133.69 1.81255Z" fill="#FEDE71" stroke="#FEDE71"/>
<path d="M99.1418 306.062L99.143 306.063C101.461 308.789 104.896 310.115 109.353 310.115C113.81 310.115 117.245 308.789 119.563 306.063L119.565 306.062C121.862 303.339 122.979 299.572 122.979 294.826V275.863C122.979 271.274 121.841 267.719 119.481 265.288C117.121 262.836 113.717 261.647 109.353 261.647C105.008 261.647 101.605 262.837 99.2257 265.288L99.2256 265.288C96.8658 267.719 95.7273 271.274 95.7273 275.863V294.826C95.7273 299.572 96.8438 303.339 99.1418 306.062ZM10.5 308.138C10.5 308.967 11.1716 309.638 12 309.638H20.5854C21.4138 309.638 22.0854 308.967 22.0854 308.138V295.256C22.0854 294.673 22.9149 294.562 23.0679 295.125L26.7104 308.536C26.8864 309.184 27.4754 309.645 28.1633 309.628C29.4165 309.595 32.0187 309.467 34.2219 308.953C35.316 308.698 36.3679 308.336 37.1058 307.804C37.4791 307.535 37.7964 307.206 37.9857 306.8C38.1796 306.386 38.2231 305.926 38.0993 305.438C37.6478 303.657 32.5017 287.36 31.7199 284.886C31.6862 284.78 31.6885 284.686 31.7284 284.58C32.2257 283.247 34.205 277.892 35.8141 272.817C36.6178 270.282 37.3341 267.802 37.7255 265.923C37.9201 264.989 38.0408 264.175 38.0432 263.568C38.0444 263.268 38.0176 262.977 37.9309 262.736C37.8424 262.49 37.6531 262.208 37.2904 262.134C33.899 261.448 28.8812 261.87 27.1058 262.052C26.4849 262.116 25.9844 262.562 25.8304 263.155L23.0088 274.01C22.8612 274.578 22.0249 274.471 22.0249 273.885V263.624C22.0249 262.796 21.3533 262.124 20.5249 262.124H12C11.1716 262.124 10.5 262.796 10.5 263.624V308.138ZM39.7761 308.138C39.7761 308.967 40.4477 309.638 41.2761 309.638H61.2634C62.0918 309.638 62.7634 308.967 62.7634 308.138V300.388C62.7634 299.322 61.6965 298.611 60.72 298.919C59.4749 299.311 57.5813 299.809 55.7676 299.901C53.9213 299.996 52.3365 299.663 51.4954 298.601C49.532 296.121 49.4304 292.982 51.4788 290.654C52.2605 289.766 53.649 289.471 55.2584 289.534C56.8407 289.597 58.4889 290.001 59.6153 290.338C60.5895 290.63 61.6444 289.92 61.6444 288.86V281.932C61.6444 280.866 60.5805 280.155 59.6037 280.457C58.4604 280.81 56.7867 281.235 55.1979 281.302C53.5789 281.371 52.219 281.062 51.4961 280.145C49.7746 277.961 49.8104 275.3 51.5022 273.064C52.2456 272.081 53.679 271.758 55.3886 271.838C57.0656 271.917 58.8336 272.378 60.0228 272.752C61.0007 273.06 62.0678 272.348 62.0678 271.281V263.624C62.0678 262.796 61.3962 262.124 60.5678 262.124H41.2761C40.4477 262.124 39.7761 262.796 39.7761 263.624V308.138ZM65.3019 308.138C65.3019 308.967 65.9735 309.638 66.802 309.638H74.036C75.132 309.638 75.8547 308.512 75.454 307.516C74.7184 305.689 73.5538 302.445 73.2296 299.549C73.067 298.096 73.1232 296.79 73.5042 295.806C73.8717 294.857 74.5407 294.198 75.6956 293.976C76.891 293.745 77.7945 294.189 78.5268 295.106C79.2825 296.052 79.8314 297.484 80.2181 299.125C80.9887 302.396 81.065 306.272 81.0505 308.096C81.0439 308.937 81.7204 309.638 82.5726 309.638H90.9327C91.7611 309.638 92.4327 308.967 92.4327 308.138V263.624C92.4327 262.796 91.7611 262.124 90.9327 262.124H83.5648C82.5832 262.124 81.8546 263.043 82.0952 264.002C82.7202 266.493 84.0655 272.261 84.5412 277.493C84.7797 280.115 84.7951 282.559 84.4133 284.378C84.0252 286.227 83.2854 287.206 82.188 287.354C81.6172 287.43 81.1202 287.261 80.6591 286.858C80.1827 286.442 79.7468 285.776 79.3595 284.884C78.5854 283.1 78.0705 280.564 77.7375 277.806C77.0732 272.304 77.1514 266.091 77.2159 263.674C77.2386 262.823 76.5551 262.124 75.7053 262.124H66.8019C65.9735 262.124 65.3019 262.796 65.3019 263.624V308.138ZM130.343 308.321C130.436 309.073 131.074 309.638 131.832 309.638H142.67C143.63 309.638 144.342 308.759 144.166 307.826C143.804 305.909 143.191 302.085 143.317 298.756C143.381 297.084 143.629 295.595 144.148 294.539C144.405 294.016 144.718 293.62 145.089 293.355C145.455 293.094 145.901 292.941 146.462 292.941C147.545 292.941 148.28 293.514 148.793 294.543C149.32 295.601 149.579 297.093 149.654 298.765C149.803 302.097 149.217 305.922 148.869 307.836C148.7 308.766 149.411 309.638 150.367 309.638H161.004C161.76 309.638 162.399 309.075 162.492 308.324L168.049 263.81C168.161 262.915 167.463 262.124 166.561 262.124H158.329C157.425 262.124 156.708 262.907 156.832 263.822C157.226 266.732 158.221 274.762 158.276 282.042C158.304 285.688 158.095 289.108 157.474 291.595C157.163 292.842 156.758 293.81 156.262 294.454C155.777 295.083 155.227 295.38 154.576 295.37C153.92 295.36 153.357 295.042 152.857 294.391C152.348 293.728 151.928 292.745 151.598 291.491C150.941 288.987 150.682 285.567 150.657 281.93C150.607 274.667 151.486 266.687 151.837 263.802C151.948 262.893 151.234 262.124 150.338 262.124H142.711C141.813 262.124 141.099 262.896 141.211 263.805C141.567 266.687 142.454 274.635 142.388 281.868C142.354 285.49 142.082 288.894 141.401 291.385C141.06 292.632 140.628 293.61 140.103 294.271C139.588 294.917 139.004 295.24 138.319 295.251C137.638 295.261 137.067 294.959 136.57 294.334C136.06 293.693 135.644 292.73 135.324 291.491C134.684 289.017 134.467 285.614 134.493 281.983C134.545 274.734 135.562 266.736 135.966 263.828C136.094 262.911 135.376 262.124 134.47 262.124H126.362C125.461 262.124 124.763 262.913 124.873 263.807L130.343 308.321ZM168.378 307.974C168.28 308.862 168.975 309.638 169.869 309.638H177.719C178.744 309.638 179.445 308.649 179.228 307.698C179.001 306.707 178.763 305.318 178.814 304.023C178.866 302.704 179.21 301.631 179.99 301.078C181.887 299.735 184.039 299.741 185.946 301.08C186.732 301.632 187.086 302.709 187.151 304.033C187.215 305.332 186.992 306.725 186.776 307.715C186.571 308.661 187.271 309.638 188.289 309.638H195.886C196.778 309.638 197.473 308.864 197.377 307.976L192.51 263.158C192.451 262.614 192.092 262.132 191.568 261.936C189.473 261.149 187.778 261 186.309 261.19C184.849 261.378 183.642 261.9 182.542 262.395C182.478 262.424 182.415 262.452 182.353 262.48C181.312 262.95 180.377 263.372 179.335 263.537C178.255 263.709 177.035 263.605 175.481 262.901C174.55 262.479 173.348 263.013 173.225 264.122L168.378 307.974Z" fill="#FEDE71" stroke="#FEDE71"/>
</svg>
