<svg xmlns="http://www.w3.org/2000/svg" width="189" height="50" viewBox="0 0 189 50" fill="none">
<path d="M89.6418 45.4463L89.643 45.4478C91.9613 48.1737 95.3961 49.5 99.8532 49.5C104.31 49.5 107.745 48.1737 110.063 45.4478L110.065 45.4463C112.362 42.7236 113.479 38.9566 113.479 34.2109V15.2475C113.479 10.6586 112.341 7.10394 109.981 4.67266C107.621 2.22092 104.217 1.03184 99.8532 1.03184C95.5078 1.03184 92.1049 2.22179 89.7257 4.67207L89.7256 4.67214C87.3658 7.10343 86.2273 10.6583 86.2273 15.2475V34.2109C86.2273 38.9566 87.3438 42.7236 89.6418 45.4463ZM1 47.5229C1 48.3514 1.67157 49.0229 2.5 49.0229H11.0854C11.9138 49.0229 12.5854 48.3514 12.5854 47.5229V34.641C12.5854 34.0574 13.4149 33.9467 13.5679 34.51L17.2104 47.9202C17.3864 48.5682 17.9754 49.0298 18.6633 49.012C19.9165 48.9796 22.5187 48.8513 24.7219 48.3376C25.816 48.0824 26.8679 47.7201 27.6058 47.1885C27.9791 46.9196 28.2964 46.5901 28.4857 46.185C28.6796 45.7702 28.7231 45.3102 28.5993 44.8222C28.1478 43.0418 23.0017 26.7449 22.2199 24.271C22.1862 24.1644 22.1885 24.0709 22.2284 23.9642C22.7257 22.6315 24.705 17.2765 26.3141 12.2016C27.1178 9.66685 27.8341 7.18652 28.2255 5.30801C28.4201 4.3738 28.5408 3.55934 28.5432 2.95207C28.5444 2.6528 28.5176 2.36158 28.4309 2.12068C28.3424 1.87467 28.1531 1.5922 27.7904 1.51883C24.399 0.83278 19.3812 1.25447 17.6058 1.43691C16.9849 1.50072 16.4844 1.94684 16.3304 2.53946L13.5088 13.3949C13.3612 13.9629 12.5249 13.856 12.5249 13.2691V3.0089C12.5249 2.18047 11.8533 1.5089 11.0249 1.5089H2.5C1.67157 1.5089 1 2.18047 1 3.0089V47.5229ZM30.2761 47.5229C30.2761 48.3514 30.9477 49.0229 31.7761 49.0229H51.7634C52.5918 49.0229 53.2634 48.3514 53.2634 47.5229V39.7722C53.2634 38.7061 52.1965 37.9959 51.22 38.3036C49.9749 38.696 48.0813 39.1932 46.2676 39.286C44.4213 39.3804 42.8365 39.0478 41.9954 37.9855C40.032 35.5054 39.9304 32.3669 41.9788 30.0389C42.7605 29.1505 44.149 28.8555 45.7584 28.919C47.3407 28.9814 48.9889 29.3852 50.1153 29.7228C51.0895 30.0148 52.1444 29.3047 52.1444 28.2441V21.3161C52.1444 20.2506 51.0805 19.5398 50.1037 19.8416C48.9604 20.1949 47.2867 20.6196 45.6979 20.6868C44.0789 20.7553 42.719 20.4469 41.9961 19.5298C40.2746 17.3458 40.3104 14.685 42.0022 12.4482C42.7456 11.4653 44.179 11.1424 45.8886 11.2228C47.5656 11.3018 49.3336 11.7623 50.5228 12.1365C51.5007 12.4443 52.5678 11.7328 52.5678 10.6659V3.0089C52.5678 2.18047 51.8962 1.5089 51.0678 1.5089H31.7761C30.9477 1.5089 30.2761 2.18047 30.2761 3.0089V47.5229ZM55.8019 47.5229C55.8019 48.3514 56.4735 49.0229 57.302 49.0229H64.536C65.632 49.0229 66.3547 47.8962 65.954 46.9009C65.2184 45.0735 64.0538 41.8291 63.7296 38.9331C63.567 37.4809 63.6232 36.1746 64.0042 35.1905C64.3717 34.2415 65.0407 33.5826 66.1956 33.3601C67.391 33.1298 68.2945 33.5733 69.0268 34.4905C69.7825 35.4368 70.3314 36.8682 70.7181 38.5095C71.4887 41.7802 71.565 45.6562 71.5505 47.4802C71.5439 48.3216 72.2204 49.0229 73.0726 49.0229H81.4327C82.2611 49.0229 82.9327 48.3514 82.9327 47.5229V3.0089C82.9327 2.18047 82.2611 1.5089 81.4327 1.5089H74.0648C73.0832 1.5089 72.3546 2.42763 72.5952 3.38655C73.2202 5.87731 74.5655 11.6459 75.0412 16.8774C75.2797 19.4995 75.2951 21.9436 74.9133 23.7626C74.5252 25.6117 73.7854 26.5908 72.688 26.7383C72.1172 26.815 71.6202 26.6451 71.1591 26.2424C70.6827 25.8265 70.2468 25.161 69.8595 24.2684C69.0854 22.4842 68.5705 19.9486 68.2375 17.1909C67.5732 11.6888 67.6514 5.4752 67.7159 3.05871C67.7386 2.20706 67.0551 1.5089 66.2053 1.5089H57.3019C56.4735 1.5089 55.8019 2.18047 55.8019 3.0089V47.5229ZM120.843 47.7059C120.936 48.4579 121.574 49.0229 122.332 49.0229H133.17C134.13 49.0229 134.842 48.1435 134.666 47.2101C134.304 45.2932 133.691 41.4696 133.817 38.1401C133.881 36.469 134.129 34.9791 134.648 33.9233C134.905 33.401 135.218 33.0048 135.589 32.7395C135.955 32.4781 136.401 32.3256 136.962 32.3256C138.045 32.3256 138.78 32.8985 139.293 33.9278C139.82 34.9854 140.079 36.4773 140.154 38.1495C140.303 41.4816 139.717 45.3068 139.369 47.2202C139.2 48.1505 139.911 49.0229 140.867 49.0229H151.504C152.26 49.0229 152.899 48.4595 152.992 47.7088L158.549 3.19472C158.661 2.29952 157.963 1.5089 157.061 1.5089H148.829C147.925 1.5089 147.208 2.29113 147.332 3.20649C147.726 6.11702 148.721 14.1465 148.776 21.4267C148.804 25.073 148.595 28.4927 147.974 30.9799C147.663 32.226 147.258 33.1947 146.762 33.8389C146.277 34.4671 145.727 34.7648 145.076 34.7546C144.42 34.7443 143.857 34.4262 143.357 33.7759C142.848 33.1126 142.428 32.1291 142.098 30.8754C141.441 28.372 141.182 24.9519 141.157 21.3145C141.107 14.0514 141.986 6.07193 142.337 3.18664C142.448 2.27783 141.734 1.5089 140.838 1.5089H133.211C132.313 1.5089 131.599 2.28031 131.711 3.18998C132.067 6.07128 132.954 14.0195 132.888 21.252C132.854 24.8743 132.582 28.2784 131.901 30.7693C131.56 32.0165 131.128 32.9948 130.603 33.6551C130.088 34.302 129.504 34.6248 128.819 34.6353C128.138 34.6457 127.567 34.3432 127.07 33.7186C126.56 33.0777 126.144 32.1146 125.824 30.8754C125.184 28.4012 124.967 24.9982 124.993 21.3674C125.045 14.1187 126.062 6.12094 126.466 3.21257C126.594 2.29552 125.876 1.5089 124.97 1.5089H116.862C115.961 1.5089 115.263 2.29759 115.373 3.19186L120.843 47.7059ZM158.878 47.3581C158.78 48.2464 159.475 49.0229 160.369 49.0229H168.219C169.244 49.0229 169.945 48.0331 169.728 47.0822C169.501 46.0918 169.263 44.7028 169.314 43.4075C169.366 42.0882 169.71 41.0152 170.49 40.463C172.387 39.1191 174.539 39.1254 176.446 40.4642C177.232 41.0161 177.586 42.094 177.651 43.4171C177.715 44.7163 177.492 46.1094 177.276 47.0993C177.071 48.0457 177.771 49.0229 178.789 49.0229H186.386C187.278 49.0229 187.973 48.2483 187.877 47.361L183.01 2.54278C182.951 1.99834 182.592 1.51669 182.068 1.32017C179.973 0.533564 178.278 0.384224 176.809 0.574211C175.349 0.762983 174.142 1.28411 173.042 1.77974C172.978 1.80823 172.915 1.8366 172.853 1.86479C171.812 2.33448 170.877 2.75638 169.835 2.92185C168.755 3.09339 167.535 2.98993 165.981 2.2854C165.05 1.86344 163.848 2.39754 163.725 3.50646L158.878 47.3581Z" fill="#F36337" stroke="#F36337"/>
</svg>
